PathFileType	4	(X/Y/Z)	C:/Users/beibeiliu/ov580/test_trc/capture2\sequence.4_training_dense_left.trc
DataRate	CameraRate	NumFrames	NumMarkers	Units	OrigDataRate	OrigDataStartFrame	OrigNumFrames
120	120	21	19	mm	120	89	355
Frame#	Time	ThumbCMC			ThumbMCP			ThumbIP			ThumbTip			IndexMCP			IndexPIP			IndexTip			MiddleMCP			MiddlePIP			MiddleTip			RingMCP			RingPIP			RingTip			PinkyMCP			PinkyPIP			PinkyTip			BackHand1			BackHand2			BackHand3	
		X0	Y0	Z0	X1	Y1	Z1	X2	Y2	Z2	X3	Y3	Z3	X4	Y4	Z4	X5	Y5	Z5	X6	Y6	Z6	X7	Y7	Z7	X8	Y8	Z8	X9	Y9	Z9	X10	Y10	Z10	X11	Y11	Z11	X12	Y12	Z12	X13	Y13	Z13	X14	Y14	Z14	X15	Y15	Z15	X16	Y16	Z16	X17	Y17	Z17	X18	Y18	Z18	
88	0.733333	-121.385	68.2766	-13.4745	-96.0043	68.3739	-34.5848	-82.4641	69.907	-63.3515	-85.2695	52.2321	-85.3556	-144.235	73.0526	-81.6272	-134.897	78.2202	-112.542	-121.825	71.9768	-132.825	-122.032	50.6266	-90.1559	-92.4123	46.4083	-79.7298	-97.6719	46.5165	-46.5763	-120.582	29.4488	-80.8212	-94.7016	31.8747	-64.7846	-109.413	34.2649	-34.3707	-121.601	17.31	-74.3028	-100.484	19.7117	-54.9587	-116.494	22.7706	-27.4162	-163.22	27.1585	-43.1179	-166.138	21.1907	-13.8639	-158.543	57.5115	-25.9377	
89	0.741667	-122.547	66.5331	-13.6463	-97.5238	67.3184	-34.5288	-84.9641	67.8649	-60.567	-80.9081	59.486	-81.5203	-146.147	72.8204	-81.9975	-136.038	75.7852	-111.641	-116.484	73.7308	-132.609	-124.377	51.5314	-89.7396	-94.1427	49.3007	-79.9942	-100.913	44.6001	-45.2326	-120.952	32.9701	-81.4416	-95.3149	30.3373	-63.6206	-111.653	36.4622	-35.113	-124.488	13.3827	-74.178	-102.149	19.3524	-53.3157	-120.841	27.7829	-28.2567	-163.973	23.9104	-43.8541	-167.566	19.3656	-12.9376	-161.033	57.1413	-24.6023	
90	0.75	-121.813	67.4368	-10.5561	-97.927	63.5083	-34.7369	-81.2225	67.9858	-61.2159	-81.0836	57.2717	-84.3926	-148.157	70.754	-80.2353	-139.492	73.5851	-108.533	-114.245	68.2943	-129.35	-129.007	51.9213	-85.8644	-97.2854	47.0839	-82.6382	-105.042	44.5136	-44.1525	-124.974	33.1975	-80.4646	-96.9509	30.775	-63.1524	-117.831	33.9686	-32.3455	-121.686	13.5184	-74.236	-103.19	19.9535	-55.1225	-119.212	26.7141	-29.2805	-163.649	28.6707	-42.495	-166.789	19.3155	-14.8341	-162.39	58.3562	-21.9168	
91	0.758333	-122.719	66.4715	-11.5394	-96.0991	63.8721	-34.2854	-82.3745	64.8429	-58.3955	-80.9978	55.788	-81.6365	-147.74	73.1821	-84.5873	-137.823	71.1553	-109.122	-114.275	66.7993	-127.088	-130.026	53.01	-85.2694	-96.2282	47.0018	-77.4242	-106.905	43.9665	-43.2541	-120.428	31.6316	-82.1517	-98.5276	27.4649	-62.7371	-116.955	31.4055	-33.7671	-127.877	13.784	-72.5409	-104.316	16.6111	-52.2863	-122.896	24.0937	-25.2465	-165.921	27.6488	-43.6604	-169.281	21.4744	-14.7669	-161.588	55.2142	-24.0761	
92	0.766667	-122.847	64.2505	-11.1805	-99.2113	59.1773	-33.9126	-85.354	62.4744	-62.3111	-86.1202	50.687	-84.3952	-147.263	69.4507	-80.8761	-136.894	70.4096	-110.739	-116.439	63.9949	-126.316	-129.269	47.7416	-87.0161	-98.223	43.1251	-78.9454	-108.602	45.5764	-42.4821	-122.232	28.1744	-81.3102	-98.6383	27.5293	-60.3914	-114.978	33.5732	-33.9891	-125.049	11.9702	-73.778	-103.86	16.9461	-53.0574	-123.722	26.0876	-26.8748	-165.712	23.0766	-43.5284	-168.732	21.222	-10.1393	-162.282	50.4869	-20.9411	
93	0.775	-123.109	62.7508	-12.1041	-98.3473	59.7741	-38.5637	-87.0969	58.9202	-60.4242	-84.3902	50.4803	-85.8163	-147.046	72.7426	-80.3854	-137.551	72.0563	-109.174	-114.785	66.3692	-130.358	-125.061	50.7595	-88.7985	-97.0711	44.8283	-80.3793	-108.881	42.007	-44.5861	-119.424	27.8263	-81.9842	-98.5657	27.4423	-63.2634	-116.968	35.7811	-34.1058	-124.972	15.4653	-73.7855	-103.414	18.6972	-53.0248	-124.03	25.7332	-27.5459	-166.228	28.0106	-43.8967	-166.887	23.577	-12.7904	-162.848	53.8386	-22.1211	
94	0.783333	-125.101	61.2866	-12.5914	-95.6423	61.6795	-37.3178	-85.7775	59.2674	-65.9859	-89.2398	45.241	-84.9229	-145.891	72.9489	-84.9959	-138.161	68.9135	-110.517	-120.357	65.948	-130.749	-124.895	51.719	-89.3297	-95.7428	46.3088	-78.255	-110.848	42.2567	-43.2546	-120.406	28.8805	-81.8973	-97.8601	29.4976	-64.1805	-117.317	32.4121	-32.5625	-123.907	14.8651	-73.2735	-102.671	12.8861	-53.9593	-121.203	24.2212	-25.5314	-163.641	27.3183	-42.8932	-168.735	21.7084	-13.3383	-162.176	51.6212	-23.7322	
95	0.791667	-124.705	62.1202	-13.7104	-96.3371	61.4676	-35.7871	-89.6027	57.3722	-65.6294	-88.2383	43.6981	-86.0209	-146.653	71.0191	-86.9437	-138.211	68.5156	-112.848	-122.154	63.9993	-136.205	-125.508	46.7869	-89.9899	-96.7346	44.7892	-82.2231	-110.561	41.599	-44.8263	-119.626	26.3846	-81.6314	-97.5266	26.387	-64.6617	-113.045	31.0743	-34.6823	-124.886	9.42237	-73.6786	-102.353	15.8564	-49.5072	-120.737	26.3531	-27.3283	-165.424	24.319	-46.6552	-165.891	21.7046	-12.7771	-162.362	56.7009	-24.2067	
96	0.8	-124.56	62.926	-15.615	-99.8466	60.0828	-39.6008	-86.5874	58.6794	-68.6501	-93.1566	39.7474	-86.3232	-147.235	70.0844	-84.6374	-140.572	72.9186	-112.542	-129.035	66.044	-138.175	-128.492	45.491	-87.0603	-97.2016	40.739	-79.7061	-108.228	41.2689	-45.7305	-120.566	29.1267	-81.7055	-96.6957	28.3346	-61.8698	-114.093	31.0764	-33.9414	-121.664	12.2672	-73.2939	-103.147	16.7195	-50.7924	-120.805	21.7627	-25.9291	-164.967	22.3546	-45.6579	-169.437	18.7998	-15.1317	-160.88	55.1158	-21.8286	
97	0.808333	-125.549	61.6869	-14.9556	-99.0776	60.3258	-38.1173	-89.9017	55.9854	-63.3509	-93.7124	37.3008	-87.6649	-148.859	69.804	-82.1998	-142.051	71.1957	-113.773	-133.125	67.1404	-138.753	-128.579	42.1127	-87.5299	-96.9936	41.0964	-78.2644	-109.016	43.4457	-44.6837	-121.337	26.6561	-80.9792	-97.3026	23.7282	-61.5764	-114.456	29.4537	-32.4845	-122.922	10.0455	-72.6289	-102.824	17.0012	-50.4156	-121.487	23.0959	-24.1521	-166.011	24.6662	-44.6623	-167.45	17.232	-10.171	-162.274	51.7583	-25.958	
98	0.816667	-124.879	64.9548	-14.0734	-96.1584	62.4674	-37.1237	-87.8818	56.4007	-67.2888	-94.195	36.6752	-83.7631	-148.276	65.3199	-83.4073	-141.931	67.9051	-113.202	-136.834	64.7113	-136.374	-127.618	41.7877	-87.6136	-98.0974	40.5745	-81.7175	-110.812	42.2123	-43.5957	-121.024	23.2174	-80.1422	-97.8092	21.5016	-62.4158	-112.58	29.822	-33.558	-123.637	8.55667	-71.2532	-103.488	15.487	-51.0232	-121.822	22.6407	-23.413	-164.919	21.833	-44.8037	-167.594	16.2632	-9.99659	-161.279	52.8937	-21.2645	
99	0.825	-126.383	62.2318	-18.4589	-98.5226	61.0652	-40.2513	-86.5244	57.1149	-64.2934	-90.4893	36.7349	-83.4943	-148.212	63.1084	-87.1153	-144.071	64.6928	-110.266	-138.117	61.4682	-137.347	-128.27	39.5723	-87.4077	-96.7733	39.0417	-78.1151	-110.554	42.734	-43.1109	-118.976	20.7698	-79.8474	-97.3659	24.5562	-61.2355	-113.563	32.4793	-33.1405	-126.288	8.04477	-70.941	-102.698	12.7021	-52.5781	-118.807	21.8033	-27.0302	-166.55	18.8791	-43.2594	-167.828	18.2839	-12.4978	-164.705	49.9378	-22.2707	
100	0.833333	-126.964	61.2616	-13.3987	-98.1125	62.219	-39.88	-87.7767	56.6528	-63.3775	-90.0815	37.0554	-84.7459	-148.789	62.4907	-85.2214	-144.515	61.5259	-109.776	-140.032	56.6328	-138.793	-124.924	37.7371	-89.7706	-97.0811	36.6611	-79.5384	-109.434	43.4886	-43.5891	-122.718	21.0228	-79.0977	-97.8484	24.3258	-61.813	-115.398	31.1512	-30.7947	-123.073	3.14477	-70.2799	-102.749	13.331	-51.9482	-119.198	22.1705	-25.126	-166.155	18.0153	-43.5709	-167.593	19.1343	-8.18327	-162.332	51.566	-23.7521	
101	0.841667	-127.88	63.2469	-18.9211	-102.371	58.6402	-37.885	-91.8948	52.8921	-63.4121	-92.9102	34.9502	-82.6923	-150.51	60.666	-86.0874	-145.966	60.2009	-109.647	-142.444	51.865	-139.658	-129.717	36.8596	-86.577	-98.1765	33.7001	-75.8808	-109.852	37.2399	-43.6674	-122.706	19.8871	-79.0772	-98.3273	21.396	-56.9282	-115.44	29.6584	-30.7887	-124.552	2.19627	-69.4829	-104.38	12.2483	-52.2394	-121.765	20.974	-23.2368	-168.254	17.8912	-42.0743	-168.472	16.315	-12.2089	-165.783	51.8217	-27.2391	
102	0.85	-128.954	63.2937	-18.469	-102.402	59.5617	-41.4388	-92.2377	51.8936	-63.6335	-94.2607	31.9268	-82.7177	-152.844	59.5755	-88.7204	-148.406	57.2411	-111.785	-145.585	48.139	-134.879	-130.02	32.3219	-88.2624	-99.6549	35.0007	-79.1336	-109.632	37.2655	-43.5283	-125.2	14.5208	-77.2337	-100.589	21.1101	-58.2186	-117.012	27.1966	-29.7829	-128.841	2.21356	-67.3018	-106.69	12.4766	-49.0569	-123.797	19.2479	-21.7921	-169.237	15.535	-41.7711	-170.185	19.5747	-11.0326	-167.313	47.9513	-26.4965	
103	0.858333	-131.09	58.9435	-18.6141	-105.949	57.7395	-39.7632	-92.7988	52.4338	-64.9379	-96.5989	30.8434	-84.7324	-155.949	53.588	-87.1115	-152.003	50.7121	-112.796	-148.773	44.3011	-137.846	-133.236	30.8088	-87.8194	-102.072	29.2808	-78.1797	-108.691	35.7954	-46.2197	-127.507	15.4652	-77.7313	-102.84	19.0743	-60.3825	-119.84	27.4335	-30.5393	-128.994	0.275783	-67.5168	-108.639	11.1438	-48.4298	-125.526	21.4594	-21.4164	-169.871	14.7771	-40.8861	-171.586	18.1397	-10.1079	-167.737	46.4182	-25.7128	
104	0.866667	-133.251	58.7894	-17.3677	-108.925	55.3335	-43.1353	-96.0059	49.4615	-67.8408	-101.32	26.2701	-87.6589	-159.424	51.1955	-87.6912	-156.049	44.8211	-114.175	-154.752	35.9207	-139.041	-137.026	25.664	-87.3335	-105.966	25.8802	-80.9127	-114.821	35.3486	-44.5133	-128.22	10.2031	-78.4588	-105.684	15.4153	-62.5426	-121.056	27.2093	-32.195	-135.559	-3.26743	-65.4303	-111.478	7.54288	-49.5189	-125.041	17.6465	-21.0943	-174.616	11.7453	-39.7324	-175.915	14.2921	-4.10884	-168.107	48.0907	-23.1305	
105	0.875	-136.69	57.7168	-22.0798	-111.032	55.1892	-43.6327	-103.824	44.9641	-69.5581	-104.179	28.2093	-84.334	-163.079	50.5731	-87.7648	-161.934	41.9424	-110.204	-162.13	35.2957	-139.026	-141.839	28.1065	-88.2448	-110.939	24.3782	-83.5133	-115.397	34.3464	-46.8143	-138.262	8.90546	-76.6171	-109.15	16.047	-60.9999	-125.295	26.3937	-30.9699	-136.569	-7.57351	-65.0099	-113.843	3.39634	-49.3281	-126.706	19.0344	-25.6406	-176.275	14.9539	-37.4883	-176.673	17.455	-3.7899	-171.262	43.1137	-26.7245	
106	0.883333	-137.08	60.6862	-21.6551	-111.968	56.4935	-44.7557	-106.847	43.8021	-72.4105	-112.493	20.0819	-88.206	-169.404	46.7489	-90.0412	-169.314	41.1854	-112.415	-170.076	31.7215	-135.856	-145.428	22.5588	-90.2557	-116.675	21.4107	-83.5089	-121.585	29.4923	-46.1349	-142.804	7.00837	-76.7283	-114.958	9.1713	-62.2385	-126.317	20.7947	-32.8595	-139.512	-5.7215	-66.0036	-117.733	-0.275902	-47.9608	-133.908	16.0907	-20.7535	-179.409	10.1228	-37.465	-178.13	15.6385	-1.68411	-173.669	46.6777	-23.1965	
107	0.891667	-141.574	56.5093	-21.0861	-119.39	51.9676	-50.2693	-112.731	42.0147	-72.094	-117.161	19.9661	-89.9422	-175.384	45.8328	-86.1559	-176.458	37.3053	-110.457	-178.474	26.0471	-134.029	-150.982	19.3986	-89.5699	-120.975	19.9184	-82.4396	-124.478	26.8826	-49.7233	-145.897	2.84796	-76.5504	-118.894	4.87932	-62.5681	-130.915	22.1962	-33.87	-145.947	-9.47848	-66.1107	-123.942	-0.486944	-50.8891	-136.162	15.2662	-25.0503	-184.541	7.17172	-35.3007	-180.96	14.159	-1.15556	-180.231	44.3402	-23.8752	
108	0.9	-145.776	55.984	-22.2737	-125.465	49.5193	-49.4693	-117.339	41.5239	-74.803	-120.644	20.8122	-89.2141	-181.039	42.6516	-86.5698	-182.998	34.6931	-110.207	-186.33	26.6363	-136.165	-156.352	19.1298	-90.911	-125.347	17.6967	-82.2948	-130.203	29.0992	-49.6546	-147.833	0.1375	-77.9375	-123.25	3.81549	-63.4699	-135.948	19.6232	-34.413	-149.619	-12.2044	-65.0168	-126.5	-1.97503	-48.0636	-137.049	14.5053	-26.0689	-188.477	8.31735	-34.8061	-185.672	13.7488	-3.08817	-181.823	40.5849	-25.0739	
